<svg xmlns="http://www.w3.org/2000/svg" viewBox="0 0 61.03 57.45"><defs><style>.a{fill:#ff4158;}</style></defs><path class="a" d="M60.85,20.77c-.11,3.08,0,6.19-.37,9.23-1.13,8.41-4.42,15.79-11.4,21a28.91,28.91,0,0,1-6.75,3.74c-4.31,1.69-8.77,3-13.5,2.66a23.67,23.67,0,0,1-4.73-.75A29,29,0,0,1,5.22,39.93,45.27,45.27,0,0,1,1,25.65C.54,21.05.32,16.43.08,11.81A33.87,33.87,0,0,1,.14,6.48,4,4,0,0,1,3.56,2.62,37.65,37.65,0,0,1,8.29,2q6.63-.48,13.29-.77C25.76,1,30,.92,34.14.74c3.57-.16,7.13-.46,10.7-.6,3-.12,6-.17,9.06-.11a5.54,5.54,0,0,1,5.21,3.52,10.49,10.49,0,0,1,1,3.34c.38,4.61.63,9.22.92,13.83Zm-30,8.31c-.58-.48-1.12-.87-1.58-1.33-2.43-2.46-4.8-5-7.27-7.39a27.11,27.11,0,0,0-3.87-3.14,4.14,4.14,0,0,0-5.11.5c-1.19,1.26-1.27,3-.11,4.76a13.74,13.74,0,0,0,1.7,2.18c3.29,3.34,6.57,6.7,10,9.94a56.28,56.28,0,0,0,4.64,3.64,3.09,3.09,0,0,0,4,0,22.86,22.86,0,0,0,3.08-2.63q3.93-4.2,7.73-8.48c1.31-1.47,2.58-3,3.74-4.59,1.39-1.91,1-4-.93-5.77-1.32-1.23-2.71-1.11-4.62.45A18.49,18.49,0,0,0,40.31,19c-3.16,3.27-6.25,6.57-9.49,10.1Z"/></svg>